<?xml version="1.0"?>
<svg xmlns="http://www.w3.org/2000/svg" height="512px" viewBox="0 0 512 512" width="512px"><path d="m482 355c-47.183594 0-85.820312-36.214844-89.675781-82.390625 28.351562-13.585937 54.5-32.03125 77.390625-54.917969 11.714844-11.71875 11.714844-30.710937 0-42.425781-11.71875-11.71875-30.710938-11.71875-42.429688 0-10.960937 10.960937-22.796875 20.519531-35.285156 28.691406v-67.957031c0-75.109375-60.890625-136-136-136s-136 60.890625-136 136v67.957031c-12.488281-8.171875-24.324219-17.730469-35.285156-28.691406-11.71875-11.71875-30.710938-11.71875-42.429688 0-11.714844 11.714844-11.714844 30.710937 0 42.425781 22.890625 22.886719 49.039063 41.332032 77.394532 54.917969-3.859376 46.175781-42.496094 82.390625-89.679688 82.390625-16.570312 0-30 13.429688-30 30s13.429688 30 30 30c12.703125 0 25.214844-.796875 37.5-2.324219v38.160157c94.25 0 94.25 61.164062 188.5 61.164062s94.25-61.164062 188.5-61.164062v-38.160157c12.285156 1.527344 24.796875 2.324219 37.5 2.324219 16.570312 0 30-13.429688 30-30s-13.429688-30-30-30zm0 0" fill="#FFFFFF"/></svg>
